# xmcd
#
# Track frame offsets: 
#        150
#        14555
#        26945
#        41107
#        58402
#        68507
#        84185
#        103157
#        120925
#
# Disc length: 1793 seconds
#
# Revision: 0
# Processed by: cddbd v1.5.2PL0 Copyright (c) Steve Scherf et al.
# Submitted via: ExactAudioCopyFreeDBPlugin 1.0
#
DISCID=7506ff09
DTITLE=Pamelody - Music Box 
DYEAR=1997
DGENRE=Country
TTITLE0=Where Do I Stand (Before I Fall)
TTITLE1=Who's Counting
TTITLE2=I Love You More Each Day
TTITLE3=Another Beer and A Few More Tears
TTITLE4=Ball and Chain
TTITLE5=Straight "A" Fool
TTITLE6=Music Box
TTITLE7=Country Girl
TTITLE8=Second Chance
EXTD=
EXTT0=
EXTT1=
EXTT2=
EXTT3=
EXTT4=
EXTT5=
EXTT6=
EXTT7=
EXTT8=
PLAYORDER=
